# xmcd
#
# Track frame offsets:
#	150
#	20049
#	37993
#	54993
#	73639
#	91030
#	106890
#	126033
#	140378
#	157706
#	178571
#
# Disc length: 2630 seconds
#
# Revision: 1
# Processed by: cddbd v1.5.2PL0 Copyright (c) Steve Scherf et al.
# Submitted via: EZCDAudioConverter 3.1.4.1
#
DISCID=800a440b
DTITLE=Tiffany Evans
DYEAR=2008
DGENRE=R&B - Soul
TTITLE0=Tiffany Evans Featuring Ciara - Promise Ring
TTITLE1=Tiffany Evans Featuring Bow Wow - I'm Grown
TTITLE2=Tiffany Evans - Impossible
TTITLE3=Tiffany Evans - Thinkin' About
TTITLE4=Tiffany Evans - Can't Walk Away
TTITLE5=Tiffany Evans - Lay Back and Chill
TTITLE6=Tiffany Evans - Girl Gone Wild
TTITLE7=Tiffany Evans - About A Boy
TTITLE8=Tiffany Evans - Favorite Broken Heart
TTITLE9=Tiffany Evans - Again
TTITLE10=Tiffany Evans - Angels On Earth
EXTD=
EXTT0=
EXTT1=
EXTT2=
EXTT3=
EXTT4=
EXTT5=
EXTT6=
EXTT7=
EXTT8=
EXTT9=
EXTT10=
PLAYORDER=
